 <svg  version="1.0" xmlns="http://www.w3.org/2000/svg"  width="300.000000pt" height="300.000000pt" viewBox="0 0 300.000000 300.000000"  preserveAspectRatio="xMidYMid meet">  <g transform="translate(0.000000,300.000000) scale(0.100000,-0.100000)" fill="#f000bc" stroke="none"> <path d="M192 2908 l-2 -97 -62 -4 -63 -3 68 -2 67 -2 0 -100 c0 -89 -2 -100 -17 -100 -12 0 -14 -3 -6 -8 6 -4 13 -28 16 -52 l4 -45 1 53 2 52 100 0 100 0 2 -47 1 -48 4 42 c4 41 5 42 46 46 l42 4 -47 1 -48 2 0 100 0 100 43 2 42 1 -37 4 -37 4 -4 97 -3 97 -2 -102 -2 -103 -100 0 -99 0 -4 103 -3 102 -2 -97z m198 -208 l0 -90 -90 0 -90 0 0 90 0 90 90 0 90 0 0 -90z"/> <path d="M802 2903 l-2 -103 -100 0 -100 0 -2 58 -2 57 -3 -52 c-4 -52 -4 -52 -41 -56 l-37 -4 43 -1 42 -2 0 -100 0 -100 -52 -2 -53 -1 45 -4 c24 -3 48 -10 52 -16 5 -8 8 -6 8 6 0 15 11 17 100 17 l100 0 2 -37 c1 -37 1 -37 5 -6 4 30 7 32 51 36 l47 3 -52 2 -53 2 0 99 c0 55 3 101 8 103 4 2 4 48 1 103 l-5 100 -2 -102z m-12 -203 l0 -90 -90 0 -90 0 0 90 0 90 90 0 90 0 0 -90z"/> <path d="M1202 2903 l-2 -103 -100 0 -100 0 -2 58 -2 57 -3 -52 c-4 -47 -6 -52 -31 -56 -24 -4 -23 -4 6 -6 l33 -1 -3 -104 c-2 -57 0 -102 5 -99 4 2 7 47 7 99 l0 94 90 0 90 0 0 -89 0 -90 -47 -4 -48 -3 53 -2 c51 -2 52 -2 53 -34 2 -28 2 -29 6 -8 3 14 10 28 17 32 7 5 5 8 -6 8 -16 0 -18 11 -18 100 l0 100 100 0 100 0 0 -100 0 -100 -52 -2 -53 -2 47 -3 c39 -3 47 -8 51 -26 4 -18 5 -17 6 6 l1 27 99 0 c55 0 101 -4 103 -10 2 -6 8 -6 18 0 13 8 12 10 -2 10 -16 0 -18 11 -18 100 l0 100 100 0 100 0 0 -100 0 -100 -52 -2 -53 -2 47 -3 c39 -3 47 -8 51 -26 4 -18 5 -17 6 6 l1 27 99 0 c55 0 101 -4 103 -10 2 -6 8 -6 18 0 13 8 12 10 -2 10 -16 0 -18 11 -18 100 l0 100 100 0 100 0 2 -47 1 -48 4 43 4 42 89 0 89 0 4 -27 c4 -26 4 -26 6 5 l1 32 100 0 100 0 2 -47 1 -48 4 43 4 42 89 0 89 0 4 -27 c4 -26 4 -26 6 5 l1 32 103 2 102 2 -100 5 c-55 3 -101 3 -103 -1 -2 -5 -48 -8 -103 -8 l-99 0 -2 103 -2 102 -3 -98 -4 -98 -94 3 c-52 2 -95 0 -95 -4 0 -5 -45 -8 -100 -8 l-100 0 -2 103 -2 102 -3 -97 -4 -98 -89 0 -89 0 -4 98 -3 97 -2 -102 -2 -103 -100 0 -100 0 -2 103 -2 102 -3 -97 -4 -98 -89 0 -89 0 -4 98 -3 97 -2 -102 -2 -103 -100 0 -100 0 -2 103 -2 102 -3 -97 -4 -98 -89 0 -89 0 -4 98 -3 97 -2 -102z m388 -203 l0 -90 -90 0 -90 0 0 90 0 90 90 0 90 0 0 -90z m400 0 l0 -90 -90 0 -90 0 0 90 0 90 90 0 90 0 0 -90z"/> <path d="M2392 2673 l-2 -63 -89 0 -90 0 -4 48 -3 47 -2 -52 -2 -53 -52 -2 -53 -2 48 -3 47 -4 0 -89 0 -89 -82 -4 -83 -3 88 -2 87 -2 0 -100 0 -100 -42 -2 -43 -1 37 -4 c33 -4 37 -8 41 -36 4 -31 4 -31 5 6 l2 37 100 0 100 0 0 -100 0 -100 -32 -1 c-31 -2 -31 -2 -5 -6 l27 -4 0 -89 0 -89 -47 -4 -48 -3 53 -2 52 -2 0 -100 0 -100 -100 0 -100 0 -1 28 c-1 22 -2 23 -6 5 -4 -18 -12 -23 -51 -26 l-47 -3 53 -2 52 -2 0 -100 0 -100 -37 -2 c-37 -1 -37 -1 -6 -5 l32 -4 4 -67 3 -67 2 73 2 72 48 2 47 1 -42 4 -43 4 0 90 0 89 90 0 90 0 0 -89 0 -90 -47 -4 -48 -3 53 -2 52 -2 0 -100 0 -100 -100 0 -100 0 -1 28 c-1 22 -2 23 -6 5 -4 -20 -12 -22 -71 -26 l-67 -3 73 -2 72 -2 0 -100 0 -100 -82 -2 -83 -2 77 -3 77 -4 4 -67 3 -67 2 73 2 72 48 2 47 1 -42 4 -43 4 0 90 0 89 90 0 90 0 0 -89 0 -90 -47 -4 -48 -3 53 -2 52 -2 0 -100 0 -100 -37 -2 c-37 -1 -37 -1 -6 -5 29 -4 32 -7 36 -46 l4 -42 1 48 c2 44 4 47 30 48 23 2 24 2 5 6 -22 4 -23 9 -23 93 0 61 4 90 13 93 7 3 5 6 -5 6 -16 1 -18 13 -18 101 l0 100 100 0 100 0 0 -100 0 -100 -82 -2 -83 -2 77 -3 77 -4 4 -67 3 -67 2 73 2 72 48 2 47 1 -42 4 -43 4 0 90 0 89 90 0 90 0 0 -89 0 -90 -47 -4 -48 -3 53 -2 52 -2 0 -100 0 -100 -37 -2 c-37 -1 -37 -1 -6 -5 29 -4 32 -7 36 -46 l4 -42 1 48 c2 44 4 47 30 48 23 2 24 2 5 6 -22 4 -23 9 -23 93 0 61 4 90 13 93 7 3 5 6 -5 6 -16 1 -18 13 -18 101 l0 100 103 2 102 2 -97 3 -98 4 0 89 c0 61 4 90 13 93 7 3 5 6 -5 6 -16 1 -18 13 -18 101 l0 100 103 2 102 2 -97 3 -98 4 0 89 c0 61 4 90 13 93 7 3 5 6 -5 6 -16 1 -18 13 -18 101 l0 100 103 2 102 2 -97 3 -98 4 0 89 0 89 98 4 97 3 -102 2 -103 2 0 100 0 100 103 2 102 2 -97 3 -98 4 0 89 0 89 98 4 97 3 -102 2 -103 2 -2 68 -2 67 -3 -62 -4 -63 -89 0 -89 0 -4 48 -3 47 -2 -52 -2 -53 -100 0 -99 0 -4 68 -3 67 -2 -62z m8 -173 l0 -100 -32 -1 c-31 -2 -31 -2 -5 -6 l27 -4 0 -90 0 -89 -90 0 -90 0 0 90 0 89 63 4 62 3 -67 2 -68 2 0 100 0 100 100 0 100 0 0 -100z m400 0 l0 -100 -32 -1 c-31 -2 -31 -2 -5 -6 l27 -4 0 -90 0 -89 -90 0 -90 0 0 90 0 89 63 4 62 3 -67 2 -68 2 0 100 0 100 100 0 100 0 0 -100z m-210 0 l0 -90 -90 0 -90 0 0 90 0 90 90 0 90 0 0 -90z m10 -200 l0 -100 -42 -2 -43 -1 37 -4 c33 -4 37 -8 41 -36 4 -31 4 -31 5 6 l2 37 100 0 100 0 0 -100 0 -100 -32 -1 c-31 -2 -31 -2 -5 -6 l27 -4 0 -89 0 -89 -47 -4 -48 -3 53 -2 52 -2 0 -100 0 -100 -100 0 -100 0 -1 28 c-2 23 -2 24 -6 5 -4 -22 -9 -23 -94 -23 l-89 0 0 89 c0 62 4 91 13 94 7 3 5 6 -5 6 -16 1 -18 13 -18 101 l0 100 100 0 100 0 2 -57 2 -58 3 52 4 52 62 4 62 3 -67 2 -68 2 -2 58 -2 57 -3 -52 -4 -53 -90 0 -89 0 0 89 0 90 43 4 42 4 -47 1 -48 2 0 100 0 100 100 0 100 0 0 -100z m0 -800 l0 -100 -82 -2 -83 -2 77 -3 77 -4 4 -67 3 -67 2 73 2 72 48 2 47 1 -42 4 -43 4 0 90 0 89 90 0 90 0 0 -89 0 -90 -47 -4 -48 -3 53 -2 52 -2 0 -100 0 -100 -100 0 -100 0 -1 28 c-2 23 -2 24 -6 5 -4 -22 -9 -23 -94 -23 l-89 0 0 89 c0 62 4 91 13 94 7 3 5 6 -5 6 -16 1 -18 13 -18 101 l0 100 100 0 100 0 0 -100z"/> <path d="M2602 1843 l-2 -43 -82 -2 -83 -2 77 -3 77 -4 4 -67 3 -67 2 73 2 72 48 2 47 1 -42 4 c-40 4 -42 6 -46 41 l-4 37 -1 -42z"/> <path d="M1603 2500 c0 -41 2 -58 4 -37 2 20 2 54 0 75 -2 20 -4 3 -4 -38z"/> <path d="M2003 2500 c0 -41 2 -58 4 -37 2 20 2 54 0 75 -2 20 -4 3 -4 -38z"/> <path d="M592 2488 l-2 -78 -89 0 c-62 0 -91 4 -94 13 -3 7 -6 5 -6 -5 -1 -16 -13 -18 -83 -20 l-83 -2 78 -3 77 -4 0 -90 0 -90 -95 3 c-52 2 -95 0 -95 -4 0 -5 -30 -9 -67 -10 l-68 -2 62 -3 c54 -3 62 -7 66 -26 4 -18 5 -17 6 6 l1 27 100 0 100 0 2 -82 2 -83 3 77 4 77 42 4 42 4 -47 1 -48 2 0 100 0 100 100 0 100 0 0 -100 0 -100 -52 -2 -53 -1 45 -4 c24 -3 48 -10 52 -16 5 -8 8 -6 8 6 0 15 11 17 100 17 l100 0 2 -47 1 -48 4 42 4 42 67 4 67 3 -72 2 -73 2 0 100 0 100 28 1 27 1 -25 7 c-14 4 -26 4 -28 -1 -2 -4 -16 -9 -30 -9 -24 -2 -24 -2 -4 -6 21 -4 22 -9 22 -94 l0 -89 -90 0 -90 0 0 90 0 89 68 4 67 3 -72 2 -72 2 -4 83 -3 82 -2 -77z"/> <path d="M980 2547 c-14 -6 -29 -17 -33 -24 -4 -7 -14 -13 -22 -13 -16 0 -24 -10 -35 -51 -7 -24 -5 -34 10 -49 10 -10 21 -32 25 -48 3 -17 13 -36 22 -43 8 -7 19 -24 24 -37 8 -20 14 -23 40 -17 31 7 32 6 25 -21 -11 -44 -54 -106 -97 -139 -45 -36 -50 -65 -14 -101 21 -21 24 -31 19 -64 -4 -23 -2 -45 4 -52 15 -19 26 -88 14 -88 -15 0 -23 28 -16 57 5 17 3 24 -4 19 -6 -3 -12 0 -15 6 -3 9 -7 6 -13 -6 -5 -13 -3 -21 4 -24 17 -5 -11 -55 -44 -77 -25 -16 -28 -16 -36 -1 -9 15 -12 14 -34 -9 -13 -14 -24 -31 -24 -37 0 -6 9 -1 19 11 14 16 26 21 41 16 12 -4 31 -1 43 7 12 7 61 27 108 43 l87 29 6 44 c16 119 1 161 -30 86 -13 -31 -18 -34 -55 -34 -41 0 -41 0 -35 30 12 65 38 140 47 140 5 0 9 -5 9 -11 0 -6 14 -24 31 -40 25 -23 39 -28 65 -25 19 2 34 0 33 -3 0 -3 -8 -48 -18 -100 -16 -93 -17 -93 -57 -115 -22 -12 -39 -27 -36 -34 2 -7 -6 -12 -20 -12 -19 0 -20 2 -8 11 12 8 9 9 -10 4 -14 -4 -41 -10 -60 -15 -29 -7 -21 -8 40 -8 41 -1 83 -1 93 -1 11 -1 24 -15 33 -38 9 -20 34 -62 56 -93 42 -60 53 -115 28 -145 -24 -29 -70 -11 -70 27 0 21 35 25 43 6 4 -8 6 -7 6 3 1 26 -30 32 -51 11 -15 -15 -17 -24 -9 -44 19 -50 74 -47 96 6 l13 31 7 -26 c12 -47 3 -74 -25 -75 -14 0 -33 -5 -44 -11 -17 -9 -17 -10 -1 -17 10 -3 30 0 46 8 33 17 34 15 14 -23 -16 -33 -33 -41 -80 -41 -25 0 -40 8 -59 31 -23 27 -26 28 -26 10 0 -32 56 -63 103 -57 50 6 72 27 86 82 16 63 -10 163 -58 224 -62 79 -57 77 44 -22 55 -53 125 -117 155 -142 192 -157 362 -301 405 -343 168 -164 265 -324 315 -516 12 -47 19 -62 19 -43 1 43 -36 170 -75 255 -101 219 -346 477 -616 648 -91 58 -228 180 -291 258 -22 28 -43 51 -48 51 -5 1 -13 2 -19 3 -20 2 -9 19 21 31 36 15 45 36 55 122 4 34 11 71 16 81 6 12 6 23 -1 31 -8 10 -8 16 3 25 40 33 20 156 -26 163 -17 2 -24 11 -26 31 -2 17 1 27 10 27 24 1 58 38 58 63 0 13 -8 31 -19 41 -24 22 -17 64 13 68 62 10 122 -25 156 -93 22 -42 40 -162 40 -264 0 -105 24 -221 56 -267 30 -43 93 -76 237 -127 235 -82 312 -155 337 -318 10 -64 6 -104 -16 -197 -5 -20 -3 -27 4 -22 20 12 35 112 30 202 -7 135 -44 205 -145 275 -24 17 -43 38 -43 48 0 49 -81 107 -136 96 -49 -9 -55 -27 -6 -19 27 4 49 1 70 -10 30 -16 70 -62 60 -71 -9 -9 -313 126 -339 151 -36 35 -56 104 -74 255 -17 144 -31 217 -51 264 -33 79 -100 123 -170 112 -30 -5 -34 -3 -45 26 -20 55 -99 82 -159 54z m94 -14 c44 -21 73 -75 60 -112 -8 -22 -5 -30 16 -48 24 -21 25 -22 8 -50 -11 -18 -25 -27 -38 -26 -16 2 -20 -3 -20 -28 0 -24 -9 -39 -35 -62 -25 -21 -35 -37 -34 -56 2 -23 2 -23 6 -4 5 28 49 63 77 63 19 -1 19 -2 -5 -15 -35 -19 -55 -71 -32 -84 10 -5 14 -15 10 -25 -8 -19 -37 -22 -37 -3 0 27 -20 35 -55 22 -40 -13 -55 -25 -33 -25 14 0 15 -5 5 -35 -13 -43 -33 -45 -39 -5 -3 21 0 30 9 30 8 0 12 4 9 9 -3 4 6 19 19 31 43 40 85 115 85 149 0 31 -2 32 -28 26 -25 -5 -32 -1 -55 32 -14 21 -29 50 -32 65 -4 15 -13 32 -21 39 -8 6 -14 19 -14 28 1 20 24 51 38 51 6 0 15 6 19 13 7 10 53 33 75 36 4 1 23 -7 42 -16z m91 -366 c7 -16 7 -32 -3 -57 -7 -19 -15 -42 -18 -51 -3 -9 -18 -16 -35 -17 -34 -1 -33 -3 -13 36 9 20 23 32 35 32 23 0 34 23 24 48 -5 11 -9 13 -12 4 -3 -6 -9 -10 -14 -6 -5 3 -9 0 -9 -6 0 -7 7 -9 16 -6 10 4 14 1 12 -6 -3 -7 -22 -14 -44 -14 -21 -1 -33 1 -26 3 6 3 12 10 12 16 0 17 31 47 49 47 9 0 21 -10 26 -23z m-91 -265 c-4 -37 -12 -63 -20 -66 -9 -3 -14 2 -14 13 0 23 32 123 37 117 2 -2 1 -31 -3 -64z m-44 1 c5 -5 -40 -42 -52 -43 -5 0 -8 11 -8 24 0 13 -6 27 -12 30 -7 3 5 3 27 0 22 -3 42 -8 45 -11z m-10 -64 c-6 -10 -17 -19 -25 -19 -19 0 -19 9 1 31 21 23 38 14 24 -12z"/> <path d="M989 2433 c-3 -18 -2 -33 3 -33 4 0 9 -15 9 -32 2 -28 2 -29 6 -8 3 14 10 28 17 32 7 5 5 8 -6 8 -12 0 -18 10 -20 33 l-3 32 -6 -32z"/> <path d="M1792 2478 l-2 -67 -82 -4 -83 -3 88 -2 87 -2 0 -100 0 -100 -42 -2 -43 -1 38 -4 37 -4 0 -89 0 -89 -82 -4 -83 -3 88 -2 88 -2 -3 -104 c-2 -66 1 -102 7 -100 6 3 9 41 7 96 -3 67 0 93 10 99 10 7 9 9 -4 9 -16 0 -18 11 -18 100 l0 100 100 0 100 0 2 -87 2 -88 3 80 c3 47 9 82 16 87 8 5 6 8 -5 8 -16 0 -18 11 -18 99 0 68 4 101 12 103 9 3 9 6 0 12 -7 4 -12 2 -12 -3 0 -6 -19 -12 -42 -13 l-43 -1 38 -4 37 -4 0 -90 0 -89 -90 0 -90 0 0 89 c0 62 4 91 13 94 7 3 5 6 -5 6 -14 1 -18 14 -21 74 l-3 72 -2 -67z"/> <path d="M192 2453 c-2 -41 -3 -42 -39 -46 l-38 -4 43 -1 42 -2 2 -87 2 -88 3 80 c3 47 9 82 16 87 8 5 7 8 -5 8 -13 0 -18 11 -21 48 l-3 47 -2 -42z"/> <path d="M1600 2411 c0 -7 -32 -12 -82 -13 l-83 -2 78 -3 77 -4 0 -89 0 -89 -47 -4 -48 -3 53 -2 52 -2 2 -87 2 -88 3 80 c3 47 9 82 16 87 8 5 6 8 -5 8 -16 0 -18 11 -18 99 0 68 4 101 12 103 9 3 9 6 0 12 -7 4 -12 2 -12 -3z"/> <path d="M1283 2363 c9 -17 22 -64 29 -103 11 -61 10 -90 -7 -208 -24 -176 -30 -296 -15 -319 9 -15 10 -14 5 7 -6 22 -3 20 25 -12 25 -30 39 -38 65 -38 41 0 65 22 65 59 0 37 -32 65 -65 57 -18 -5 -25 -13 -25 -31 0 -14 5 -25 11 -25 6 0 9 6 6 14 -3 8 1 20 8 26 36 30 72 -34 40 -70 -23 -25 -46 -25 -77 0 -44 34 -57 84 -45 173 5 42 14 77 19 77 5 0 6 -4 3 -10 -3 -5 0 -10 8 -10 17 0 26 19 20 38 -4 9 -9 10 -17 3 -10 -8 -11 20 -8 128 5 147 -10 234 -44 262 -16 13 -16 12 -1 -18z"/> <path d="M1222 2375 c2 -5 13 -28 23 -50 28 -59 26 -233 -4 -389 -27 -135 -24 -206 10 -285 18 -43 69 -107 69 -87 0 4 7 1 15 -8 8 -8 15 -20 15 -26 0 -6 5 -8 10 -5 6 3 10 1 10 -5 0 -6 4 -9 9 -6 5 3 11 0 14 -7 3 -7 49 -31 103 -52 135 -52 171 -71 228 -119 l49 -40 -33 -14 c-18 -7 -30 -16 -26 -19 3 -3 19 0 37 7 19 8 33 10 37 4 58 -83 93 -137 112 -171 13 -24 25 -41 27 -39 7 6 -63 138 -101 190 -27 38 -33 54 -25 67 25 47 2 122 -45 146 l-31 15 33 -34 c34 -36 50 -92 33 -117 -7 -12 -19 -5 -61 32 -50 45 -134 90 -259 138 -172 66 -233 199 -200 443 27 204 13 382 -34 423 -11 10 -18 14 -15 8z"/> <path d="M592 2088 l-2 -78 -89 0 c-62 0 -91 4 -94 13 -3 7 -6 5 -6 -5 -1 -16 -13 -18 -83 -20 l-83 -2 78 -3 77 -4 0 -89 0 -90 -90 0 -90 0 0 89 c0 62 4 91 13 94 7 3 5 6 -5 6 -15 1 -18 12 -20 74 l-2 72 -3 -67 -4 -67 -37 -4 -37 -4 43 -1 42 -2 0 -100 0 -100 -67 -2 -68 -1 65 -6 c36 -3 67 -3 68 2 2 4 48 7 103 7 l99 0 0 -100 0 -100 -100 0 -100 0 -2 88 -2 87 -3 -82 -4 -82 -62 -4 -62 -3 68 -2 67 -2 0 -100 0 -100 -67 -2 -68 -1 65 -6 c36 -3 67 -3 68 2 2 4 48 7 103 7 l99 0 0 -100 0 -100 -100 0 -100 0 -2 88 -2 87 -3 -82 -4 -82 -62 -4 -62 -3 68 -2 67 -2 0 -100 0 -100 -67 -2 -68 -1 65 -6 c36 -3 67 -3 68 2 2 4 48 7 103 7 l99 0 0 -100 0 -100 -52 -2 -53 -2 48 -3 47 -4 0 -90 0 -89 -90 0 -90 0 0 89 0 90 42 4 43 4 -47 1 -48 2 -2 88 -2 87 -3 -82 -4 -82 -52 -4 -52 -3 58 -2 57 -2 0 -100 0 -100 -47 -2 -48 -1 42 -4 c39 -4 42 -7 46 -36 4 -31 4 -31 5 6 l2 37 100 0 100 0 0 -100 0 -100 -52 -2 -53 -2 48 -3 47 -4 0 -90 0 -89 -90 0 -90 0 0 89 0 90 43 4 42 4 -47 1 -48 2 -2 63 -2 62 -3 -57 -4 -57 -52 -4 -52 -3 58 -2 57 -2 0 -100 0 -100 -47 -2 -48 -1 42 -4 c39 -4 42 -7 46 -36 4 -31 4 -31 5 6 l2 37 100 0 100 0 2 -67 2 -68 3 62 4 63 89 0 89 0 4 -53 3 -52 2 58 2 57 53 2 52 2 -47 3 -48 4 0 90 0 89 90 0 90 0 0 -89 0 -90 -42 -4 -43 -4 48 -1 47 -2 2 -67 2 -68 3 63 4 62 89 0 89 0 4 -52 3 -53 2 58 2 57 100 0 100 0 2 -72 2 -73 3 65 c2 35 9 68 16 72 8 5 6 8 -5 8 -10 0 -18 3 -18 8 0 4 -43 6 -95 4 l-95 -3 0 90 c0 85 1 90 23 94 19 4 18 4 -5 6 -19 1 -28 6 -28 19 0 11 -3 13 -8 5 -4 -6 -32 -13 -62 -16 l-55 -3 63 -2 62 -2 0 -100 0 -100 -100 0 -100 0 0 100 0 100 38 2 c36 1 36 1 5 5 -23 3 -33 10 -36 26 -4 18 -5 17 -6 -5 l-1 -28 -100 0 c-88 0 -100 2 -101 18 0 10 -3 12 -6 5 -3 -9 -32 -13 -94 -13 l-89 0 0 89 c0 85 1 90 23 94 19 4 18 4 -5 6 l-28 1 0 100 0 100 88 2 87 2 -82 3 -83 4 0 89 c0 84 1 89 23 93 19 4 18 4 -5 6 l-28 1 0 100 0 100 88 2 87 2 -82 3 -83 4 0 89 0 89 68 4 67 3 -72 2 -73 2 0 100 0 100 73 2 72 2 -67 3 -68 4 0 89 0 89 63 4 62 3 -67 2 -68 2 0 100 0 100 100 0 100 0 0 -100 c0 -70 -4 -100 -12 -100 -6 0 -9 -2 -6 -5 3 -3 11 -3 19 0 11 4 13 26 11 99 l-3 95 28 4 c27 4 27 4 -4 6 l-32 1 -4 83 -3 82 -2 -77z m-202 -588 l0 -90 -90 0 -90 0 0 90 0 90 90 0 90 0 0 -90z m0 -400 l0 -90 -90 0 -90 0 0 90 0 90 90 0 90 0 0 -90z m210 -800 l0 -100 -100 0 -100 0 0 100 0 100 100 0 100 0 0 -100z"/> <path d="M2192 2063 l-2 -52 -82 -4 -83 -3 88 -2 87 -2 2 -57 2 -58 3 52 4 52 62 4 62 3 -67 2 -67 2 -4 58 -3 57 -2 -52z"/> <path d="M802 2048 c-2 -38 -6 -48 -19 -48 -11 0 -14 -3 -7 -8 6 -4 14 -14 17 -22 4 -10 6 -8 6 7 1 12 4 23 9 25 4 2 4 23 1 48 l-6 45 -1 -47z"/> <path d="M1600 2011 c0 -6 -25 -12 -57 -13 l-58 -2 52 -3 52 -4 4 -47 3 -47 2 52 c1 30 7 53 14 55 9 3 9 6 0 12 -7 4 -12 2 -12 -3z"/> <path d="M2000 2011 c0 -6 -19 -12 -42 -13 l-43 -1 38 -4 37 -4 0 -89 0 -89 -27 -4 c-25 -4 -25 -4 6 -6 l33 -1 -4 -117 c-2 -65 -2 -110 0 -100 2 9 7 17 10 17 4 0 6 43 4 95 l-3 95 90 0 90 0 4 -67 3 -68 2 73 2 72 48 2 47 1 -42 4 c-40 4 -42 6 -46 41 l-4 37 -1 -42 -2 -43 -100 0 -100 0 0 99 c0 68 4 101 12 103 9 3 9 6 0 12 -7 4 -12 2 -12 -3z"/> <path d="M703 1936 c4 -10 -1 -12 -16 -9 -18 4 -19 3 -7 -6 26 -18 49 -13 43 9 -3 11 -10 20 -15 20 -6 0 -8 -6 -5 -14z"/> <path d="M787 1934 c-3 -3 -3 -13 0 -21 5 -12 1 -14 -15 -9 -11 4 -23 2 -27 -4 -3 -5 2 -10 12 -10 14 0 15 -2 4 -9 -8 -5 -20 -7 -28 -4 -25 10 -13 -12 17 -29 17 -9 30 -13 30 -9 0 5 -8 12 -17 16 -16 6 -15 8 7 20 32 18 35 18 55 -1 15 -15 15 -18 -1 -36 -16 -17 -17 -18 -1 -12 12 4 17 1 17 -10 0 -9 5 -16 11 -16 6 0 8 9 4 20 -5 15 -2 20 12 20 15 0 13 5 -10 26 -31 29 -31 32 3 37 13 2 26 9 28 15 2 7 -2 10 -10 8 -48 -15 -68 -16 -68 -1 0 15 -12 20 -23 9z"/> <path d="M1348 1878 c15 -19 7 -45 -16 -51 -15 -4 -15 -5 -1 -6 36 -2 52 56 19 67 -12 4 -13 3 -2 -10z"/> <path d="M667 1833 c-14 -13 -6 -33 13 -33 11 0 20 6 20 13 0 8 4 7 10 -3 5 -8 10 -10 10 -5 0 6 -4 16 -9 23 -7 11 -9 11 -14 -2 -4 -9 -12 -16 -18 -16 -8 0 -8 4 1 15 12 14 0 22 -13 8z"/> <path d="M733 1818 c2 -7 12 -12 21 -12 9 1 16 -4 16 -12 0 -8 4 -14 9 -14 5 0 7 9 4 21 -3 12 -11 18 -19 15 -8 -3 -14 -1 -14 4 0 6 -5 10 -11 10 -6 0 -9 -6 -6 -12z"/> <path d="M2878 1793 c23 -2 61 -2 85 0 23 2 4 4 -43 4 -47 0 -66 -2 -42 -4z"/> <path d="M851 1670 c-160 -317 -212 -552 -213 -948 0 -117 3 -216 6 -219 3 -4 6 37 6 89 0 377 79 770 214 1062 50 108 39 121 -13 16z"/> <path d="M692 1705 c12 -26 32 -33 43 -15 3 6 18 10 33 11 24 0 25 1 7 9 -31 13 -45 12 -45 -5 0 -22 -21 -18 -27 5 -3 11 -9 20 -14 20 -5 0 -3 -11 3 -25z"/> <path d="M1300 1702 c0 -26 32 -73 56 -82 42 -16 71 -11 101 16 22 20 24 23 6 15 -15 -8 -24 -8 -28 0 -5 7 -14 3 -26 -10 -26 -28 -58 -15 -86 35 -13 21 -23 33 -23 26z"/> <path d="M1568 1666 c-6 -53 -28 -82 -75 -102 -23 -10 -39 -11 -58 -4 -35 13 -40 13 -26 -4 14 -17 59 -27 67 -15 3 5 13 9 23 9 25 0 80 61 87 97 3 17 2 39 -4 48 -7 14 -10 7 -14 -29z"/> <path d="M1620 1683 c0 -12 12 -35 26 -52 21 -25 34 -31 64 -31 38 0 60 14 45 28 -4 4 -10 1 -12 -5 -13 -36 -86 -1 -109 51 -11 26 -13 27 -14 9z"/> <path d="M1100 1641 c0 -6 -7 -7 -17 -4 -10 4 -14 2 -10 -4 4 -6 3 -13 -2 -15 -5 -1 -3 -12 6 -23 10 -13 17 -16 20 -8 2 7 10 10 17 7 17 -6 16 27 -1 44 -7 7 -13 9 -13 3z"/> <path d="M1802 1591 c-45 -61 -150 -86 -282 -67 -35 5 -40 4 -21 -4 13 -6 67 -15 120 -20 173 -18 180 -20 216 -52 32 -28 47 -23 27 9 -13 20 -79 43 -124 43 -43 0 -43 0 -16 14 22 12 35 12 84 0 68 -15 100 -36 134 -88 30 -45 40 -30 11 17 -25 41 -81 73 -143 82 l-48 7 25 20 c26 20 50 56 43 64 -3 2 -14 -9 -26 -25z"/> <path d="M684 1565 c-5 -12 -9 -13 -20 -4 -19 15 -30 4 -15 -15 9 -11 7 -15 -11 -21 -23 -8 -23 -8 3 -12 21 -3 26 -9 22 -24 -3 -10 0 -19 6 -19 6 0 11 7 11 15 0 18 17 20 23 3 2 -7 8 -10 12 -6 4 4 3 14 -4 22 -9 11 -7 15 11 21 l23 8 -23 4 c-17 3 -21 9 -17 24 7 23 -13 26 -21 4z"/> <path d="M1240 1546 c0 -5 18 -38 41 -73 79 -126 85 -194 24 -258 -36 -38 -67 -44 -103 -19 -42 29 -20 109 29 102 19 -2 24 -9 24 -30 -1 -30 12 -38 21 -14 8 20 -12 53 -36 61 -25 8 -69 -21 -76 -50 -8 -31 21 -84 54 -96 47 -18 93 6 125 66 14 25 16 27 17 9 0 -36 -31 -112 -57 -138 -31 -31 -54 -33 -77 -7 -15 16 -22 18 -36 9 -14 -9 -22 -9 -36 3 -15 12 -17 12 -13 0 7 -19 68 -51 99 -51 14 0 36 7 48 16 58 40 22 -39 -39 -88 -23 -18 -47 -45 -55 -60 -27 -52 -12 -113 34 -140 79 -47 154 58 78 108 -32 20 -69 4 -64 -29 4 -27 48 -38 48 -11 0 14 -3 14 -15 4 -19 -15 -30 -7 -21 15 7 20 45 16 59 -6 16 -26 0 -68 -29 -75 -42 -11 -78 23 -82 78 -3 42 0 47 48 94 60 58 71 76 95 167 10 37 21 67 24 67 4 0 3 41 -2 90 -7 76 -14 100 -40 143 -37 62 -87 126 -87 113z"/> <path d="M600 1408 c0 -4 -8 -8 -17 -8 -14 0 -15 -2 -5 -9 10 -6 13 -32 10 -100 -2 -50 0 -91 5 -91 4 0 8 -30 9 -67 l1 -68 6 65 c3 36 3 67 -1 68 -5 2 -8 48 -8 102 l0 99 33 3 32 3 -32 6 c-18 3 -33 2 -33 -3z"/> <path d="M867 1393 c-2 -5 -7 -20 -11 -35 -11 -47 23 -29 38 20 5 16 3 22 -8 22 -8 0 -17 -3 -19 -7z"/> <path d="M1266 1384 c-13 -12 -13 -18 -3 -28 13 -15 33 -11 40 7 2 7 -1 18 -9 24 -10 10 -16 10 -28 -3z"/> <path d="M2878 1393 c23 -2 61 -2 85 0 23 2 4 4 -43 4 -47 0 -66 -2 -42 -4z"/> <path d="M796 1381 c-8 -13 11 -51 24 -51 6 0 10 -5 10 -11 0 -6 -6 -9 -12 -6 -17 6 -58 -10 -58 -23 0 -13 36 -13 61 0 25 14 25 61 0 84 -12 11 -21 14 -25 7z"/> <path d="M1964 1343 c-6 -24 -18 -43 -35 -52 -33 -18 -79 -8 -79 19 0 10 -4 22 -10 25 -5 3 -10 -2 -10 -13 0 -28 33 -53 71 -54 40 -1 79 39 79 83 0 39 -5 37 -16 -8z"/> <path d="M1435 1339 c-11 -4 -15 -8 -10 -8 6 -1 3 -6 -5 -11 -10 -6 -11 -10 -2 -10 6 0 12 -7 12 -15 0 -8 5 -15 10 -15 6 0 10 4 10 10 0 5 6 7 13 4 8 -3 14 2 14 13 0 26 -19 41 -42 32z"/> <path d="M884 1325 c-10 -8 -17 -15 -14 -15 33 -8 46 -7 62 1 10 5 18 14 18 19 0 15 -44 12 -66 -5z"/> <path d="M1020 1315 c0 -18 -17 -20 -23 -2 -2 6 -8 9 -12 5 -4 -4 -2 -14 5 -23 10 -12 10 -15 -4 -15 -9 0 -16 -5 -16 -11 0 -6 7 -9 15 -5 11 4 15 -1 15 -17 1 -21 1 -22 15 -3 8 11 15 14 15 8 0 -7 5 -12 11 -12 6 0 8 9 4 20 -5 14 -2 20 10 20 9 0 14 4 10 10 -3 5 -13 6 -21 3 -13 -5 -15 -1 -9 15 4 13 2 22 -4 22 -6 0 -11 -7 -11 -15z"/> <path d="M1384 1303 c3 -10 10 -45 15 -77 20 -111 76 -190 118 -167 10 5 31 12 46 16 30 6 43 26 33 50 -4 12 -10 10 -30 -10 -34 -34 -52 -32 -97 14 -46 45 -52 71 -10 40 51 -37 110 -5 90 49 -7 19 -15 23 -41 20 -43 -4 -49 -27 -6 -25 27 2 33 -2 33 -18 0 -15 -8 -21 -34 -23 -44 -5 -74 24 -96 94 -9 30 -19 54 -22 54 -2 0 -2 -8 1 -17z"/> <path d="M842 1283 c-12 -10 -22 -27 -24 -37 -3 -22 20 -35 26 -14 16 53 15 53 43 22 25 -27 28 -27 31 -9 3 11 -5 26 -18 37 -28 22 -33 22 -58 1z"/> <path d="M1129 1211 c-21 -9 -17 -32 8 -42 16 -6 22 -3 26 9 5 22 -14 41 -34 33z"/> <path d="M1022 1194 c-17 -12 -22 -25 -22 -59 0 -57 11 -85 50 -123 56 -56 138 -55 205 3 l40 36 -49 -31 c-60 -36 -115 -39 -164 -10 -70 43 -93 171 -32 178 20 2 22 1 10 -7 -11 -8 -12 -13 -3 -22 6 -6 16 -8 22 -5 17 11 13 34 -8 46 -25 13 -22 13 -49 -6z"/> <path d="M1366 1153 c-33 -225 1 -341 116 -397 43 -20 74 -26 168 -32 126 -7 210 -31 235 -67 17 -24 35 -14 19 11 -21 33 -74 54 -152 61 l-77 7 49 8 c142 24 268 -37 301 -146 20 -69 -5 -131 -61 -148 -18 -5 -22 -9 -11 -9 28 -1 74 29 86 56 34 75 -19 190 -112 240 -27 15 -60 18 -222 18 -180 0 -192 1 -230 23 -45 26 -81 72 -95 123 -14 47 -11 84 3 41 13 -43 59 -89 95 -97 63 -14 113 34 93 88 -14 36 -48 51 -84 38 -42 -16 -33 -32 13 -25 36 6 40 4 51 -20 10 -22 9 -29 -6 -46 -44 -49 -126 -2 -158 90 -15 43 -17 68 -12 136 7 85 1 115 -9 47z"/> <path d="M1626 1178 c4 -6 0 -14 -7 -19 -11 -7 -10 -9 4 -9 10 0 16 -4 13 -9 -3 -5 5 -8 18 -8 39 0 24 51 -16 54 -11 1 -16 -3 -12 -9z"/> <path d="M1634 1056 c-28 -28 -34 -41 -34 -77 1 -48 15 -73 57 -101 49 -31 116 -16 93 22 -5 8 -6 18 -4 22 3 4 -2 8 -10 8 -30 0 -27 -31 4 -42 13 -5 12 -7 -3 -13 -50 -21 -127 40 -127 100 0 53 44 95 99 95 56 0 83 -15 114 -63 46 -70 28 -155 -42 -203 -19 -13 -31 -24 -26 -24 21 0 86 52 96 76 29 77 0 164 -70 211 -52 35 -105 31 -147 -11z"/> <path d="M789 1028 c-4 -16 -2 -28 2 -28 5 0 9 -45 9 -100 l0 -100 -42 -2 -43 -1 38 -4 37 -4 0 -89 c0 -61 -4 -90 -12 -93 -8 -4 -7 -6 4 -6 9 -1 18 -7 20 -15 3 -12 5 -12 16 0 11 12 10 14 -3 14 -12 0 -15 17 -15 100 l0 100 38 2 c36 1 36 1 5 5 l-33 4 0 89 0 89 28 4 c26 4 25 4 -5 6 -27 1 -32 5 -35 29 l-3 27 -6 -27z"/> <path d="M1407 1030 c-6 -22 0 -30 24 -30 21 0 30 22 15 35 -20 17 -34 15 -39 -5z"/> <path d="M975 1010 c3 -5 1 -10 -5 -10 -7 0 -6 -5 2 -14 7 -8 18 -13 23 -13 15 3 24 31 11 39 -16 11 -38 10 -31 -2z"/> <path d="M1760 1002 c-8 -3 -18 -9 -22 -15 -7 -12 13 -37 25 -30 4 3 15 -1 24 -9 12 -9 15 -9 9 -1 -4 7 -9 23 -11 34 -5 27 -6 28 -25 21z"/> <path d="M2878 993 c23 -2 61 -2 85 0 23 2 4 4 -43 4 -47 0 -66 -2 -42 -4z"/> <path d="M1087 926 c-6 -16 -10 -16 -24 -5 -15 12 -16 11 -11 -8 4 -16 2 -23 -8 -23 -8 0 -14 -4 -14 -10 0 -5 7 -10 15 -10 8 0 15 -7 15 -15 0 -8 5 -15 10 -15 6 0 10 8 10 17 0 13 3 14 12 5 7 -7 17 -12 22 -12 6 0 5 5 -2 12 -9 9 -7 14 6 24 16 12 16 13 0 14 -9 0 -18 10 -20 23 -3 20 -4 20 -11 3z"/> <path d="M1941 863 c-1 -7 -8 -10 -18 -6 -10 4 -14 2 -9 -5 3 -6 2 -13 -4 -17 -14 -8 10 -32 32 -32 9 0 19 9 21 19 3 10 1 18 -3 18 -5 0 -11 8 -13 18 -3 9 -5 12 -6 5z"/> <path d="M1594 843 c3 -7 1 -13 -5 -13 -17 0 13 -26 32 -27 20 -2 31 28 15 43 -17 15 -48 13 -42 -3z"/> <path d="M2191 833 c-1 -17 -8 -23 -38 -26 l-38 -4 43 -1 42 -2 0 -100 c0 -97 -1 -100 -22 -101 -22 0 -22 -1 -3 -8 11 -5 22 -4 23 0 2 5 48 9 103 9 l99 0 2 -67 2 -68 3 60 c2 33 10 63 16 67 8 5 6 8 -5 8 -15 0 -18 10 -20 53 l-2 52 -3 -47 -4 -48 -90 0 -89 0 0 89 c0 62 4 91 13 94 7 3 6 6 -5 6 -10 1 -18 11 -21 29 -3 21 -4 22 -6 5z"/> <path d="M2591 833 c-1 -20 -7 -22 -68 -26 l-68 -3 73 -2 72 -2 0 -100 0 -100 -82 -2 -83 -2 80 -5 c44 -3 82 -3 83 2 2 4 48 7 103 7 l99 0 2 -67 2 -68 3 60 c2 33 10 63 16 67 8 5 6 8 -5 8 -15 0 -18 10 -20 53 l-2 52 -3 -47 -4 -48 -90 0 -89 0 0 89 c0 62 4 91 13 94 7 3 6 6 -5 6 -10 1 -18 11 -21 29 -3 21 -4 22 -6 5z"/> <path d="M935 809 l-60 -6 62 -1 c37 -1 63 -7 65 -14 3 -7 7 -8 10 -3 12 20 -18 30 -77 24z"/> <path d="M2893 803 c20 -2 54 -2 75 0 20 2 3 4 -38 4 -41 0 -58 -2 -37 -4z"/> <path d="M1354 775 c2 -7 0 -16 -7 -19 -7 -2 -4 -5 5 -5 12 -1 15 -6 11 -18 -5 -14 -3 -15 7 -6 7 6 18 9 25 7 15 -6 15 25 1 42 -15 16 -49 15 -42 -1z"/> <path d="M1758 675 c48 -42 67 -83 59 -132 -7 -43 -49 -90 -88 -98 -36 -8 -89 17 -111 53 -11 17 -18 21 -18 11 0 -17 32 -50 67 -68 78 -40 163 25 163 126 0 63 -41 122 -94 137 -10 2 -1 -10 22 -29z"/> <path d="M1544 675 c-5 -12 -9 -13 -20 -4 -19 16 -30 3 -14 -16 10 -12 10 -15 -4 -15 -9 0 -16 -4 -16 -10 0 -5 7 -10 15 -10 8 0 15 -8 15 -17 1 -16 2 -16 15 1 8 11 15 14 15 8 0 -7 8 -12 17 -12 13 0 14 3 5 12 -9 9 -7 14 6 24 16 12 15 13 -5 14 -16 0 -20 5 -16 20 6 23 -5 27 -13 5z"/> <path d="M1696 675 c-3 -9 -2 -24 3 -33 9 -16 10 -16 16 0 4 9 2 24 -3 33 -8 16 -9 16 -16 0z"/> <path d="M1386 654 c-12 -12 -13 -18 -4 -28 7 -7 18 -13 24 -13 18 0 23 30 8 45 -10 9 -16 8 -28 -4z"/> <path d="M1186 612 c-4 -7 -2 -12 3 -12 6 0 12 -15 12 -32 2 -28 2 -29 6 -8 3 14 10 28 17 32 7 5 5 8 -6 8 -9 0 -18 5 -20 12 -3 9 -6 9 -12 0z"/> <path d="M1947 613 c-4 -7 -13 -10 -20 -7 -15 6 -17 -29 -2 -42 18 -16 43 -12 48 7 3 11 1 19 -3 19 -5 0 -10 8 -12 18 -2 12 -6 13 -11 5z"/> <path d="M1697 580 c-2 -9 1 -20 7 -26 14 -13 42 -4 40 14 -1 6 -2 16 -3 21 -2 16 -39 8 -44 -9z"/> <path d="M2878 593 c23 -2 61 -2 85 0 23 2 4 4 -43 4 -47 0 -66 -2 -42 -4z"/> <path d="M1645 560 c3 -5 -1 -10 -9 -10 -9 0 -16 -4 -16 -8 0 -14 11 -21 26 -15 16 6 19 43 3 43 -5 0 -7 -4 -4 -10z"/> <path d="M2192 493 l-2 -82 -57 -4 -58 -3 63 -2 62 -2 0 -100 0 -100 -82 -2 -83 -2 80 -5 c44 -3 82 -3 83 2 2 4 48 7 103 7 l99 0 2 -67 2 -68 3 60 c2 33 10 63 16 67 8 5 6 8 -5 8 -15 0 -18 10 -20 53 l-2 52 -3 -47 -4 -48 -90 0 -89 0 0 89 c0 62 4 91 13 94 7 3 5 6 -5 6 -15 1 -18 14 -21 89 l-3 87 -2 -82z"/> <path d="M2592 493 l-2 -82 -67 -4 -68 -3 73 -2 72 -2 0 -100 0 -100 -82 -2 -83 -2 80 -5 c44 -3 82 -3 83 2 2 4 48 7 103 7 l99 0 2 -67 2 -68 3 60 c2 33 10 63 16 67 8 5 6 8 -5 8 -15 0 -18 10 -20 53 l-2 52 -3 -47 -4 -48 -90 0 -89 0 0 89 c0 62 4 91 13 94 7 3 5 6 -5 6 -15 1 -18 14 -21 89 l-3 87 -2 -82z"/> <path d="M815 533 c-55 -8 -135 -33 -135 -43 0 -13 1 -13 41 4 55 22 143 28 225 16 74 -11 112 -23 357 -109 157 -55 242 -72 362 -72 122 0 224 24 343 82 99 48 105 63 8 19 -130 -58 -201 -75 -316 -74 -120 1 -200 18 -440 96 -85 27 -182 55 -215 63 -69 15 -186 25 -230 18z"/> <path d="M1860 508 c0 -27 37 -68 61 -68 9 1 7 5 -6 12 -25 14 -34 28 -29 43 3 6 -2 18 -11 25 -13 11 -15 9 -15 -12z"/> <path d="M1821 451 c-11 -7 -12 -15 -5 -32 9 -20 11 -20 27 -5 9 9 14 23 11 31 -7 17 -13 18 -33 6z"/> <path d="M2401 433 c-1 -31 -4 -33 -38 -35 -37 -1 -37 -1 -6 -5 29 -4 32 -7 36 -46 l4 -42 1 48 c2 44 4 47 30 48 22 1 23 2 5 6 -14 3 -23 13 -26 31 -4 24 -4 24 -6 -5z"/> <path d="M2801 433 c-1 -31 -4 -33 -38 -35 -37 -1 -37 -1 -6 -5 29 -4 32 -7 36 -46 l4 -42 1 48 c2 44 4 47 30 48 22 1 23 2 5 6 -14 3 -23 13 -26 31 -4 24 -4 24 -6 -5z"/> <path d="M2893 403 c20 -2 54 -2 75 0 20 2 3 4 -38 4 -41 0 -58 -2 -37 -4z"/> <path d="M1800 218 c0 -14 -9 -18 -37 -20 -37 -1 -37 -1 -6 -5 27 -4 32 -9 36 -36 4 -31 4 -31 5 6 l2 37 100 0 100 0 1 -32 c2 -28 2 -29 6 -8 3 14 10 28 17 32 7 5 5 8 -6 8 -10 0 -18 3 -18 8 0 4 -41 6 -91 4 -68 -3 -94 0 -100 10 -7 10 -9 9 -9 -4z"/> <path d="M2878 193 c23 -2 61 -2 85 0 23 2 4 4 -43 4 -47 0 -66 -2 -42 -4z"/> <path d="M1428 160 c-2 -8 -27 -12 -76 -11 l-72 1 0 -36 c0 -34 1 -35 21 -20 12 8 28 12 36 9 9 -4 13 0 11 10 -2 9 1 15 7 14 5 -1 9 -7 8 -12 -2 -6 7 -16 18 -23 17 -11 24 -11 37 1 10 8 22 12 29 10 6 -2 13 4 16 14 4 15 5 15 6 1 1 -13 11 -16 46 -16 40 0 45 2 45 23 0 21 -4 23 -57 24 -31 0 -60 5 -63 12 -6 8 -9 8 -12 -1z"/> <path d="M1578 125 c-5 -24 -3 -25 43 -25 41 0 48 3 52 23 l4 22 2 -22 c0 -13 5 -23 10 -23 5 0 12 10 14 23 l4 22 2 -22 c0 -13 6 -23 12 -23 6 0 8 7 5 16 -3 9 -6 20 -6 25 0 5 -31 9 -69 9 -65 0 -69 -1 -73 -25z"/> </g> </svg> 